<?xml version="1.0" encoding="utf-8"?>
<!-- Generator: Adobe Illustrator 17.1.0, SVG Export Plug-In . SVG Version: 6.00 Build 0)  -->
<!DOCTYPE svg PUBLIC "-//W3C//DTD SVG 1.1//EN" "http://www.w3.org/Graphics/SVG/1.1/DTD/svg11.dtd">
<svg version="1.1" id="Layer_1" xmlns="http://www.w3.org/2000/svg" xmlns:xlink="http://www.w3.org/1999/xlink" x="0px" y="0px"
	 viewBox="0 0 573.333 230.417" enable-background="new 0 0 573.333 230.417" xml:space="preserve">
<g>
	<path fill="#1D163A" d="M172.284,179.35l-22.681-19.534c-7.648,12.803-20.768,20.855-35.827,22.53
		c-35.83,3.979-60.532-21.716-63.921-52.251c-3.39-30.534,15.063-61.022,50.894-65.002c13.023-1.447,26.502,4.885,39.216,15.424
		L158.709,57.1l-2.688-24.134c-18.676-10.737-40.484-14.033-60.157-11.849C36.833,27.676-5.828,74.048,1.002,135.522
		C7.831,197,59.623,232.87,118.661,226.31c13.927-1.544,38.112-9.155,56.186-23.902L172.284,179.35z"/>
</g>
<path fill="#1D163A" d="M280.007,46.975c6.327-7.395,13.54-13.965,21.467-19.655l-2.87-25.834
	c-5.876-0.996-11.713-1.591-17.819-0.911c-25.649,2.849-45.734,18.686-53.832,42.256l-0.814,0.091l-3.436-30.942l-48.858,5.428
	l21.713,195.414l48.852-5.428l-11.624-104.632c-1.171-10.549,1.038-49.721,46.614-55.036
	C279.61,47.477,279.799,47.22,280.007,46.975z"/>
<path fill="#1D163A" d="M443.635,181.488l-21.855-18.817c-7.644,12.8-20.764,20.853-35.82,22.526
	c-35.831,3.98-60.532-21.713-63.924-52.249c-3.396-30.534,15.064-61.022,50.895-65.003c13.027-1.448,26.505,4.886,39.218,15.426
	l18.076-22.594l-2.819-25.406c-18.504-10.376-39.978-13.553-59.358-11.396C309.008,30.53,266.355,76.9,273.18,138.375
	c6.834,61.477,58.624,97.347,117.655,90.788c13.758-1.527,37.505-8.969,55.504-23.353L443.635,181.488z"/>
<path fill="#1D163A" d="M551.453,49.907c6.323-7.395,13.532-13.964,21.456-19.655l-2.865-25.829
	c-5.875-0.999-11.713-1.591-17.818-0.913c-25.651,2.848-45.734,18.684-53.83,42.257l-0.816,0.091l-3.441-30.945l-48.853,5.426
	l21.709,195.416l48.852-5.426L504.227,105.7c-1.17-10.552,1.033-49.724,46.615-55.039C551.044,50.415,551.236,50.156,551.453,49.907
	z"/>
</svg>
